<svg width="16" height="16" viewBox="0 0 16 16" fill="none" xmlns="http://www.w3.org/2000/svg">
<path d="M15.0268 4.28002C14.9476 3.96363 14.7863 3.67373 14.5592 3.43962C14.3321 3.20551 14.0473 3.03548 13.7334 2.94669C12.5868 2.66669 8.00009 2.66669 8.00009 2.66669C8.00009 2.66669 3.41343 2.66669 2.26676 2.97335C1.95293 3.06214 1.66808 3.23218 1.44099 3.46629C1.21391 3.7004 1.05262 3.99029 0.97343 4.30669C0.763573 5.47039 0.66092 6.65089 0.666763 7.83335C0.659282 9.02472 0.761941 10.2142 0.97343 11.3867C1.06074 11.6933 1.22563 11.9721 1.45219 12.1963C1.67875 12.4206 1.95931 12.5826 2.26676 12.6667C3.41343 12.9734 8.00009 12.9734 8.00009 12.9734C8.00009 12.9734 12.5868 12.9734 13.7334 12.6667C14.0473 12.5779 14.3321 12.4079 14.5592 12.1737C14.7863 11.9396 14.9476 11.6497 15.0268 11.3334C15.235 10.1784 15.3376 9.00691 15.3334 7.83335C15.3409 6.64199 15.2382 5.45249 15.0268 4.28002V4.28002Z" stroke="#FFC82C" stroke-linecap="round" stroke-linejoin="round"/>
<path d="M6.5 10.0133L10.3333 7.83332L6.5 5.65332V10.0133Z" stroke="#FFC82C" stroke-linecap="round" stroke-linejoin="round"/>
</svg>
