<svg width="32" height="32" viewBox="0 0 32 32" fill="none" xmlns="http://www.w3.org/2000/svg">
<path d="M18.6667 2.66672H8.00004C7.2928 2.66672 6.61452 2.94767 6.11442 3.44777C5.61433 3.94786 5.33337 4.62614 5.33337 5.33338V26.6667C5.33337 27.374 5.61433 28.0522 6.11442 28.5523C6.61452 29.0524 7.2928 29.3334 8.00004 29.3334H24C24.7073 29.3334 25.3856 29.0524 25.8857 28.5523C26.3858 28.0522 26.6667 27.374 26.6667 26.6667V10.6667L18.6667 2.66672Z" stroke="#2E96C9" stroke-width="2" stroke-linecap="round" stroke-linejoin="round"/>
<path d="M18.6667 2.66672V10.6667H26.6667" stroke="#2E96C9" stroke-width="2" stroke-linecap="round" stroke-linejoin="round"/>
<path d="M21.3334 17.3334H10.6667" stroke="#2E96C9" stroke-width="2" stroke-linecap="round" stroke-linejoin="round"/>
<path d="M21.3334 22.6667H10.6667" stroke="#2E96C9" stroke-width="2" stroke-linecap="round" stroke-linejoin="round"/>
<path d="M13.3334 12.0001H12H10.6667" stroke="#2E96C9" stroke-width="2" stroke-linecap="round" stroke-linejoin="round"/>
</svg>
