<svg width="16" height="16" viewBox="0 0 16 16" fill="none" xmlns="http://www.w3.org/2000/svg">
<g clip-path="url(#clip0_1_101)">
<path d="M11.3333 1.33331H4.66659C2.82564 1.33331 1.33325 2.8257 1.33325 4.66665V11.3333C1.33325 13.1743 2.82564 14.6666 4.66659 14.6666H11.3333C13.1742 14.6666 14.6666 13.1743 14.6666 11.3333V4.66665C14.6666 2.8257 13.1742 1.33331 11.3333 1.33331Z" stroke="#FFC82C" stroke-linecap="round" stroke-linejoin="round"/>
<path d="M10.6666 7.58002C10.7488 8.13485 10.6541 8.7015 10.3957 9.19936C10.1374 9.69723 9.72865 10.101 9.22764 10.3531C8.72662 10.6053 8.15885 10.6931 7.60508 10.604C7.0513 10.5149 6.53973 10.2534 6.14311 9.85679C5.7465 9.46018 5.48504 8.9486 5.39593 8.39483C5.30682 7.84105 5.3946 7.27328 5.64677 6.77227C5.89894 6.27125 6.30268 5.86251 6.80054 5.60418C7.29841 5.34585 7.86506 5.25108 8.41989 5.33335C8.98583 5.41727 9.50979 5.68099 9.91435 6.08556C10.3189 6.49012 10.5826 7.01407 10.6666 7.58002Z" stroke="#FFC82C" stroke-linecap="round" stroke-linejoin="round"/>
<path d="M11.6666 4.33331H11.674" stroke="#FFC82C" stroke-linecap="round" stroke-linejoin="round"/>
</g>
<defs>
<clipPath id="clip0_1_101">
<rect width="16" height="16" fill="white"/>
</clipPath>
</defs>
</svg>
