<svg width="200" height="22" viewBox="0 0 200 22" fill="none" xmlns="http://www.w3.org/2000/svg">
<path d="M0.559659 21.2955H1.89453L2.96839 14.8746H3.08771C3.38601 15.9261 4.1392 17.2386 6.21982 17.2386C9.02379 17.2386 11.3281 14.8523 11.9173 11.3026C12.4989 7.7603 11 5.38885 8.16619 5.38885C6.05575 5.38885 4.90732 6.70135 4.2809 7.73047H4.11683L4.47479 5.54545H3.18466L0.559659 21.2955ZM3.54261 11.2802C3.99006 8.53587 5.60831 6.59695 7.84553 6.59695C10.1573 6.59695 11.0075 8.64027 10.5824 11.2802C10.1349 13.9499 8.51669 16.0231 6.23473 16.0231C4.01989 16.0231 3.09517 14.0469 3.54261 11.2802ZM18.3809 17.2386C21.3042 17.2386 23.7279 14.8597 24.2947 11.4219C24.8689 7.8647 23.1835 5.38885 20.1633 5.38885C17.2474 5.38885 14.8238 7.7603 14.257 11.2205C13.6753 14.7702 15.3682 17.2386 18.3809 17.2386ZM18.4033 16.0231C16.0766 16.0231 15.1295 13.935 15.5471 11.4219C15.9722 8.80433 17.7247 6.59695 20.1483 6.59695C22.4751 6.59695 23.4147 8.70739 23.0045 11.2205C22.5795 13.853 20.8344 16.0231 18.4033 16.0231ZM26.2765 17H27.6039L28.8269 9.60227C29.1177 7.90199 30.6167 6.67152 32.4064 6.67152C32.7644 6.67152 33.085 6.73118 33.2044 6.74609L33.4355 5.39631C33.2566 5.37393 32.9583 5.37393 32.7346 5.37393C31.2953 5.37393 29.9157 6.1495 29.2743 7.3054H29.1774L29.4757 5.54545H28.1855L26.2765 17ZM49.5621 6.00035H52.2244C52.5898 3.34553 50.718 1.51847 47.4666 1.51847C44.2525 1.51847 41.5678 3.3157 41.1129 6.02273C40.755 8.2152 42.0973 9.46804 44.4986 10.1243L46.1541 10.5717C47.7425 10.9893 48.7642 11.5039 48.5554 12.6896C48.3466 13.9947 46.9595 14.8672 45.1548 14.8672C43.4322 14.8672 42.2017 14.0916 42.3658 12.4883H39.6438C39.2486 15.5234 41.2322 17.2312 44.7894 17.2312C48.451 17.2312 50.8672 15.4041 51.3221 12.712C51.7621 10.0646 49.771 8.84908 47.5785 8.31214L46.2063 7.95419C44.9982 7.65589 43.723 7.11896 43.9542 5.85121C44.1481 4.69531 45.3114 3.86008 47.0415 3.86008C48.6896 3.86008 49.5994 4.62074 49.5621 6.00035ZM58.002 17.2237C60.6792 17.2237 62.7151 15.9187 63.5354 13.9276L61.067 13.6442C60.5301 14.6211 59.5756 15.1207 58.3898 15.1207C56.5702 15.1207 55.6381 14.196 55.9736 12.0483L55.9811 12.011H63.968L64.0947 11.1832C64.7659 7.17116 62.648 5.39631 59.8291 5.39631C56.5553 5.39631 54.0049 7.80504 53.4232 11.3398C52.8192 14.9268 54.5567 17.2237 58.002 17.2237ZM56.3018 10.1914C56.6075 8.81925 57.9722 7.49929 59.5233 7.49929C61.0819 7.49929 61.9246 8.63281 61.6636 10.1914H56.3018ZM58.9193 4.03906H60.9328L63.789 0.631037H61.1491L58.9193 4.03906ZM65.4296 17H68.1292L69.2403 10.266C69.4939 8.81179 70.7542 7.78267 72.2307 7.78267C72.7006 7.78267 73.2449 7.85724 73.4761 7.93928L73.8937 5.45597C73.6327 5.40376 73.2375 5.38139 72.9317 5.38139C71.6192 5.38139 70.3813 6.12713 69.7549 7.45455H69.6356L69.9562 5.54545H67.3387L65.4296 17ZM77.5702 21.5341C80.6501 21.5341 83.1707 20.1246 83.648 17.1864L85.572 5.54545H82.9097L82.5965 7.43963H82.4548C82.1789 6.61186 81.5226 5.39631 79.5017 5.39631C76.8543 5.39631 74.4307 7.46946 73.8117 11.2354C73.1853 14.9716 74.9527 16.8359 77.6001 16.8359C79.5613 16.8359 80.6576 15.7844 81.1945 14.9418H81.3287L80.9857 17.1119C80.7172 18.7972 79.4495 19.4908 77.9207 19.4908C76.2726 19.4908 75.7282 18.7301 75.5045 18.0515L72.969 18.6406C73.2151 20.244 74.6395 21.5341 77.5702 21.5341ZM78.6739 14.718C76.8841 14.718 76.213 13.331 76.556 11.2205C76.8991 9.13991 78.0326 7.61115 79.8373 7.61115C81.5674 7.61115 82.328 9.05043 81.9775 11.2205C81.6196 13.4055 80.3891 14.718 78.6739 14.718ZM86.4296 17H89.1292L91.0383 5.54545H88.3387L86.4296 17ZM90.0837 3.90483C90.9413 3.90483 91.702 3.24858 91.7616 2.44318C91.8287 1.63033 91.1874 0.974076 90.3298 0.974076C89.4648 0.974076 88.7116 1.63033 88.637 2.44318C88.5699 3.24858 89.2261 3.90483 90.0837 3.90483ZM96.9464 17.2237C100.257 17.2237 102.748 14.897 103.33 11.392C103.912 7.79758 102.152 5.39631 98.766 5.39631C95.4474 5.39631 92.9567 7.73047 92.3825 11.2504C91.8008 14.8224 93.5533 17.2237 96.9464 17.2237ZM97.1626 15.0611C95.3505 15.0611 94.7539 13.4428 95.0895 11.3771C95.4325 9.24432 96.6705 7.53658 98.5497 7.53658C100.354 7.53658 100.958 9.1772 100.623 11.2354C100.28 13.3757 99.0419 15.0611 97.1626 15.0611ZM111.486 4.04652H116.207L114.059 17H116.804L118.951 4.04652H123.672L124.06 1.72727H111.874L111.486 4.04652ZM122.564 17H125.264L126.375 10.266C126.629 8.81179 127.889 7.78267 129.366 7.78267C129.835 7.78267 130.38 7.85724 130.611 7.93928L131.028 5.45597C130.767 5.40376 130.372 5.38139 130.066 5.38139C128.754 5.38139 127.516 6.12713 126.89 7.45455H126.77L127.091 5.54545H124.473L122.564 17ZM130.911 17H133.611L135.52 5.54545H132.82L130.911 17ZM134.565 3.90483C135.423 3.90483 136.183 3.24858 136.243 2.44318C136.31 1.63033 135.669 0.974076 134.811 0.974076C133.946 0.974076 133.193 1.63033 133.118 2.44318C133.051 3.24858 133.708 3.90483 134.565 3.90483ZM140.205 10.2884C140.496 8.63281 141.652 7.67827 143.068 7.67827C144.478 7.67827 145.149 8.60298 144.896 10.1243L143.755 17H146.454L147.677 9.70668C148.132 6.9549 146.812 5.39631 144.47 5.39631C142.755 5.39631 141.42 6.20916 140.704 7.49183H140.563L140.891 5.54545H138.303L136.394 17H139.101L140.205 10.2884ZM153.427 17.2013C155.388 17.2013 156.477 16.0305 157.036 15.1953H157.2L156.894 17H159.549L162.085 1.72727H159.385L158.431 7.43963H158.319C158.043 6.61186 157.402 5.39631 155.381 5.39631C152.741 5.39631 150.317 7.46946 149.676 11.2876C149.057 15.0611 150.727 17.2013 153.427 17.2013ZM154.508 14.9865C152.726 14.9865 152.077 13.4205 152.435 11.2727C152.785 9.13991 153.934 7.61115 155.724 7.61115C157.469 7.61115 158.222 9.05043 157.856 11.2727C157.484 13.495 156.223 14.9865 154.508 14.9865ZM165.718 17.2312C167.516 17.2312 168.739 16.3885 169.38 15.4265H169.469L169.201 17H171.796L173.071 9.33381C173.578 6.30611 171.259 5.39631 169.082 5.39631C166.673 5.39631 164.622 6.47017 163.697 8.55824L166.143 8.91619C166.546 8.12571 167.463 7.462 168.776 7.462C170.029 7.462 170.566 8.1108 170.387 9.2294V9.27415C170.252 10.0348 169.425 10.087 167.374 10.3033C165.114 10.5419 162.885 11.2056 162.452 13.7859C162.079 16.0305 163.541 17.2312 165.718 17.2312ZM166.74 15.2475C165.614 15.2475 164.906 14.7255 165.07 13.7411C165.226 12.6971 166.218 12.272 167.456 12.1005C168.164 12.0036 169.619 11.8246 170.014 11.5412L169.79 12.891C169.581 14.1662 168.358 15.2475 166.74 15.2475ZM178.754 17.2013C180.715 17.2013 181.804 16.0305 182.363 15.1953H182.527L182.222 17H184.876L187.412 1.72727H184.712L183.758 7.43963H183.646C183.37 6.61186 182.729 5.39631 180.708 5.39631C178.068 5.39631 175.644 7.46946 175.003 11.2876C174.384 15.0611 176.054 17.2013 178.754 17.2013ZM179.835 14.9865C178.053 14.9865 177.404 13.4205 177.762 11.2727C178.113 9.13991 179.261 7.61115 181.051 7.61115C182.796 7.61115 183.549 9.05043 183.184 11.2727C182.811 13.495 181.55 14.9865 179.835 14.9865ZM192.82 17.2237C195.498 17.2237 197.533 15.9187 198.354 13.9276L195.885 13.6442C195.348 14.6211 194.394 15.1207 193.208 15.1207C191.389 15.1207 190.456 14.196 190.792 12.0483L190.799 12.011H198.786L198.913 11.1832C199.584 7.17116 197.466 5.39631 194.647 5.39631C191.374 5.39631 188.823 7.80504 188.242 11.3398C187.638 14.9268 189.375 17.2237 192.82 17.2237ZM191.12 10.1914C191.426 8.81925 192.791 7.49929 194.342 7.49929C195.9 7.49929 196.743 8.63281 196.482 10.1914H191.12Z" fill="#C11616"/>
</svg>
